<svg xmlns="http://www.w3.org/2000/svg" viewBox="0 0 256 256" title="PSPDFKit"><defs><style>.logo-svg-cls-1{fill:#06478e;}.logo-svg-cls-2{fill:#3b81da;}</style></defs><path class="logo-svg-cls-1" d="M87.59,170.3l-3.6,2,2.6-3.2a117.65,117.65,0,0,0,26.34-72.38l.06-4.12,1.47,3.85a117.65,117.65,0,0,0,49.51,59l3.54,2.12-4.07-.65A117.65,117.65,0,0,0,87.59,170.3Z"/><path class="logo-svg-cls-2" d="M145.92,142.17c-22.33-31.47-18.5-49.39-12.29-73.36C141,40.4,123.58,12.2,93.1,20.56c-13.49,3.7-18.26,12.9-20,19.34C64.88,71,113.93,117.35,145.92,142.17Z"/><path class="logo-svg-cls-2" d="M53.07,166.33c-28.29,7.83-44,37-21.52,59.23,10,9.83,20.3,9.37,26.74,7.63C89.35,224.77,105,159.13,110.45,119,94.36,154.08,76.93,159.73,53.07,166.33Z"/><path class="logo-svg-cls-2" d="M233.09,149.4c-22.82-22.7-87.47-3.39-125,11.91,38.42-3.6,52,8.67,69.68,26,20.93,20.58,54.06,19.6,62.05-11C243.39,162.83,237.81,154.1,233.09,149.4Z"/></svg>
